<mxfile host="65bd71144e">
    <diagram id="rOZSbEzyaqEvwGihrRK6" name="Page-1">
        <mxGraphModel dx="508" dy="285" grid="1" gridSize="10" guides="1" tooltips="1" connect="1" arrows="1" fold="1" page="1" pageScale="1" pageWidth="850" pageHeight="1100" math="0" shadow="0">
            <root>
                <mxCell id="0"/>
                <mxCell id="1" parent="0"/>
                <mxCell id="39" value="" style="rounded=0;whiteSpace=wrap;html=1;fontFamily=Courier New;fillColor=none;" vertex="1" parent="1">
                    <mxGeometry x="230" y="45" width="170" height="445" as="geometry"/>
                </mxCell>
                <mxCell id="8" value="VIN" style="text;html=1;align=right;verticalAlign=middle;resizable=0;points=[];autosize=1;strokeColor=none;fillColor=none;fontFamily=Courier New;" vertex="1" parent="1">
                    <mxGeometry x="150" y="45" width="50" height="30" as="geometry"/>
                </mxCell>
                <mxCell id="9" value="GND" style="text;html=1;align=right;verticalAlign=middle;resizable=0;points=[];autosize=1;strokeColor=none;fillColor=none;fontFamily=Courier New;" vertex="1" parent="1">
                    <mxGeometry x="150" y="75" width="50" height="30" as="geometry"/>
                </mxCell>
                <mxCell id="10" value="PC6 /&amp;nbsp; RST" style="text;html=1;align=right;verticalAlign=middle;resizable=0;points=[];autosize=1;strokeColor=none;fillColor=none;fontFamily=Courier New;" vertex="1" parent="1">
                    <mxGeometry x="100" y="104" width="100" height="30" as="geometry"/>
                </mxCell>
                <mxCell id="11" value="5V" style="text;html=1;align=right;verticalAlign=middle;resizable=0;points=[];autosize=1;strokeColor=none;fillColor=none;fontFamily=Courier New;" vertex="1" parent="1">
                    <mxGeometry x="160" y="134" width="40" height="30" as="geometry"/>
                </mxCell>
                <mxCell id="12" value="A7 /&amp;nbsp; &amp;nbsp; &amp;nbsp;/&amp;nbsp; &amp;nbsp; &amp;nbsp;" style="text;html=1;align=right;verticalAlign=middle;resizable=0;points=[];autosize=1;strokeColor=none;fillColor=none;fontFamily=Courier New;" vertex="1" parent="1">
                    <mxGeometry x="70" y="164" width="130" height="30" as="geometry"/>
                </mxCell>
                <mxCell id="13" value="A6 /&amp;nbsp; &amp;nbsp; &amp;nbsp;/&amp;nbsp; &amp;nbsp; &amp;nbsp;" style="text;html=1;align=right;verticalAlign=middle;resizable=0;points=[];autosize=1;strokeColor=none;fillColor=none;fontFamily=Courier New;" vertex="1" parent="1">
                    <mxGeometry x="70" y="193" width="130" height="30" as="geometry"/>
                </mxCell>
                <mxCell id="14" value="SCL / A5 / PC5 /&amp;nbsp; &amp;nbsp;19" style="text;html=1;align=right;verticalAlign=middle;resizable=0;points=[];autosize=1;strokeColor=none;fillColor=none;fontFamily=Courier New;" vertex="1" parent="1">
                    <mxGeometry x="30" y="223" width="170" height="30" as="geometry"/>
                </mxCell>
                <mxCell id="15" value="SDA / A4 / PC4 /&amp;nbsp; &amp;nbsp;18" style="text;html=1;align=right;verticalAlign=middle;resizable=0;points=[];autosize=1;strokeColor=none;fillColor=none;fontFamily=Courier New;" vertex="1" parent="1">
                    <mxGeometry x="30" y="253" width="170" height="30" as="geometry"/>
                </mxCell>
                <mxCell id="16" value="A3 / PC3 /&amp;nbsp; &amp;nbsp;17" style="text;html=1;align=right;verticalAlign=middle;resizable=0;points=[];autosize=1;strokeColor=none;fillColor=none;fontFamily=Courier New;" vertex="1" parent="1">
                    <mxGeometry x="70" y="282" width="130" height="30" as="geometry"/>
                </mxCell>
                <mxCell id="17" value="A2 / PC2 /&amp;nbsp; &amp;nbsp;16" style="text;html=1;align=right;verticalAlign=middle;resizable=0;points=[];autosize=1;strokeColor=none;fillColor=none;fontFamily=Courier New;" vertex="1" parent="1">
                    <mxGeometry x="70" y="312" width="130" height="30" as="geometry"/>
                </mxCell>
                <mxCell id="18" value="A1 / PC1 /&amp;nbsp; &amp;nbsp;15" style="text;html=1;align=right;verticalAlign=middle;resizable=0;points=[];autosize=1;strokeColor=none;fillColor=none;fontFamily=Courier New;" vertex="1" parent="1">
                    <mxGeometry x="70" y="341" width="130" height="30" as="geometry"/>
                </mxCell>
                <mxCell id="19" value="A0 / PC0 /&amp;nbsp; &amp;nbsp;14" style="text;html=1;align=right;verticalAlign=middle;resizable=0;points=[];autosize=1;strokeColor=none;fillColor=none;fontFamily=Courier New;" vertex="1" parent="1">
                    <mxGeometry x="70" y="371" width="130" height="30" as="geometry"/>
                </mxCell>
                <mxCell id="20" value="AREF" style="text;html=1;align=right;verticalAlign=middle;resizable=0;points=[];autosize=1;strokeColor=none;fillColor=none;fontFamily=Courier New;" vertex="1" parent="1">
                    <mxGeometry x="150" y="401" width="50" height="30" as="geometry"/>
                </mxCell>
                <mxCell id="21" value="3V3" style="text;html=1;align=right;verticalAlign=middle;resizable=0;points=[];autosize=1;strokeColor=none;fillColor=none;fontFamily=Courier New;" vertex="1" parent="1">
                    <mxGeometry x="150" y="430" width="50" height="30" as="geometry"/>
                </mxCell>
                <mxCell id="22" value="SCL /&amp;nbsp; &amp;nbsp; &amp;nbsp;/ PB5 /&amp;nbsp; &amp;nbsp;13" style="text;html=1;align=right;verticalAlign=middle;resizable=0;points=[];autosize=1;strokeColor=none;fillColor=none;fontFamily=Courier New;" vertex="1" parent="1">
                    <mxGeometry x="20" y="460" width="180" height="30" as="geometry"/>
                </mxCell>
                <mxCell id="23" value="&amp;nbsp; 0 / PD0 /&amp;nbsp; &amp;nbsp; &amp;nbsp;/ TX" style="text;html=1;align=left;verticalAlign=middle;resizable=0;points=[];autosize=1;strokeColor=none;fillColor=none;fontFamily=Courier New;" vertex="1" parent="1">
                    <mxGeometry x="425" y="45" width="170" height="30" as="geometry"/>
                </mxCell>
                <mxCell id="24" value="&amp;nbsp; 1 / PD1 /&amp;nbsp; &amp;nbsp; &amp;nbsp;/ RX" style="text;html=1;align=left;verticalAlign=middle;resizable=0;points=[];autosize=1;strokeColor=none;fillColor=none;fontFamily=Courier New;" vertex="1" parent="1">
                    <mxGeometry x="425" y="75" width="170" height="30" as="geometry"/>
                </mxCell>
                <mxCell id="25" value="RST / PC6" style="text;html=1;align=left;verticalAlign=middle;resizable=0;points=[];autosize=1;strokeColor=none;fillColor=none;fontFamily=Courier New;" vertex="1" parent="1">
                    <mxGeometry x="425" y="104" width="90" height="30" as="geometry"/>
                </mxCell>
                <mxCell id="26" value="GND" style="text;html=1;align=left;verticalAlign=middle;resizable=0;points=[];autosize=1;strokeColor=none;fillColor=none;fontFamily=Courier New;" vertex="1" parent="1">
                    <mxGeometry x="425" y="134" width="50" height="30" as="geometry"/>
                </mxCell>
                <mxCell id="27" value="&amp;nbsp; 2 / PD2 /&amp;nbsp; &amp;nbsp; &amp;nbsp;/ INT0" style="text;html=1;align=left;verticalAlign=middle;resizable=0;points=[];autosize=1;strokeColor=none;fillColor=none;fontFamily=Courier New;" vertex="1" parent="1">
                    <mxGeometry x="425" y="164" width="180" height="30" as="geometry"/>
                </mxCell>
                <mxCell id="28" value="&amp;nbsp; 3 / PD3 / PWM / INT1" style="text;html=1;align=left;verticalAlign=middle;resizable=0;points=[];autosize=1;strokeColor=none;fillColor=none;fontFamily=Courier New;" vertex="1" parent="1">
                    <mxGeometry x="425" y="193" width="180" height="30" as="geometry"/>
                </mxCell>
                <mxCell id="29" value="&amp;nbsp; 4 / PD4" style="text;html=1;align=left;verticalAlign=middle;resizable=0;points=[];autosize=1;strokeColor=none;fillColor=none;fontFamily=Courier New;" vertex="1" parent="1">
                    <mxGeometry x="425" y="223" width="90" height="30" as="geometry"/>
                </mxCell>
                <mxCell id="30" value="&amp;nbsp; 5 / PD5 / PWM" style="text;html=1;align=left;verticalAlign=middle;resizable=0;points=[];autosize=1;strokeColor=none;fillColor=none;fontFamily=Courier New;" vertex="1" parent="1">
                    <mxGeometry x="425" y="253" width="130" height="30" as="geometry"/>
                </mxCell>
                <mxCell id="31" value="&amp;nbsp; 6 / PD6 / PWM" style="text;html=1;align=left;verticalAlign=middle;resizable=0;points=[];autosize=1;strokeColor=none;fillColor=none;fontFamily=Courier New;" vertex="1" parent="1">
                    <mxGeometry x="425" y="282" width="130" height="30" as="geometry"/>
                </mxCell>
                <mxCell id="32" value="&amp;nbsp; 7 / PD7" style="text;html=1;align=left;verticalAlign=middle;resizable=0;points=[];autosize=1;strokeColor=none;fillColor=none;fontFamily=Courier New;" vertex="1" parent="1">
                    <mxGeometry x="425" y="312" width="90" height="30" as="geometry"/>
                </mxCell>
                <mxCell id="33" value="&amp;nbsp; 8 / PB0" style="text;html=1;align=left;verticalAlign=middle;resizable=0;points=[];autosize=1;strokeColor=none;fillColor=none;fontFamily=Courier New;" vertex="1" parent="1">
                    <mxGeometry x="425" y="341" width="90" height="30" as="geometry"/>
                </mxCell>
                <mxCell id="34" value="&amp;nbsp; 9 / PB1 / PWM" style="text;html=1;align=left;verticalAlign=middle;resizable=0;points=[];autosize=1;strokeColor=none;fillColor=none;fontFamily=Courier New;" vertex="1" parent="1">
                    <mxGeometry x="425" y="371" width="130" height="30" as="geometry"/>
                </mxCell>
                <mxCell id="35" value="&amp;nbsp;10 / PB2 / PWM / SS" style="text;html=1;align=left;verticalAlign=middle;resizable=0;points=[];autosize=1;strokeColor=none;fillColor=none;fontFamily=Courier New;" vertex="1" parent="1">
                    <mxGeometry x="425" y="401" width="170" height="30" as="geometry"/>
                </mxCell>
                <mxCell id="36" value="&amp;nbsp;11 / PB3 / PWM / MOSI" style="text;html=1;align=left;verticalAlign=middle;resizable=0;points=[];autosize=1;strokeColor=none;fillColor=none;fontFamily=Courier New;" vertex="1" parent="1">
                    <mxGeometry x="425" y="430" width="180" height="30" as="geometry"/>
                </mxCell>
                <mxCell id="37" value="&amp;nbsp;12 / PB4 /&amp;nbsp; &amp;nbsp; &amp;nbsp;/ MISO" style="text;html=1;align=left;verticalAlign=middle;resizable=0;points=[];autosize=1;strokeColor=none;fillColor=none;fontFamily=Courier New;" vertex="1" parent="1">
                    <mxGeometry x="425" y="460" width="180" height="30" as="geometry"/>
                </mxCell>
                <mxCell id="38" value="&lt;font style=&quot;font-size: 16px;&quot;&gt;Arduino&lt;br&gt;Nano V3&lt;/font&gt;" style="text;html=1;align=center;verticalAlign=middle;resizable=0;points=[];autosize=1;strokeColor=none;fillColor=none;fontFamily=Courier New;" vertex="1" parent="1">
                    <mxGeometry x="270" y="237.5" width="90" height="50" as="geometry"/>
                </mxCell>
                <mxCell id="40" value="USB" style="rounded=0;whiteSpace=wrap;html=1;fontFamily=Courier New;fillColor=none;" vertex="1" parent="1">
                    <mxGeometry x="287.5" y="470" width="55" height="60" as="geometry"/>
                </mxCell>
                <mxCell id="69" value="" style="endArrow=none;html=1;fontFamily=Courier New;" edge="1" parent="1">
                    <mxGeometry width="50" height="50" relative="1" as="geometry">
                        <mxPoint x="210" y="60" as="sourcePoint"/>
                        <mxPoint x="230" y="59.83000000000001" as="targetPoint"/>
                    </mxGeometry>
                </mxCell>
                <mxCell id="71" value="" style="endArrow=none;html=1;fontFamily=Courier New;" edge="1" parent="1">
                    <mxGeometry width="50" height="50" relative="1" as="geometry">
                        <mxPoint x="210" y="90" as="sourcePoint"/>
                        <mxPoint x="230" y="89.83000000000004" as="targetPoint"/>
                    </mxGeometry>
                </mxCell>
                <mxCell id="72" value="" style="endArrow=none;html=1;fontFamily=Courier New;" edge="1" parent="1">
                    <mxGeometry width="50" height="50" relative="1" as="geometry">
                        <mxPoint x="210" y="119" as="sourcePoint"/>
                        <mxPoint x="230" y="118.83000000000004" as="targetPoint"/>
                    </mxGeometry>
                </mxCell>
                <mxCell id="73" value="" style="endArrow=none;html=1;fontFamily=Courier New;" edge="1" parent="1">
                    <mxGeometry width="50" height="50" relative="1" as="geometry">
                        <mxPoint x="210" y="149" as="sourcePoint"/>
                        <mxPoint x="230" y="148.83000000000004" as="targetPoint"/>
                    </mxGeometry>
                </mxCell>
                <mxCell id="74" value="" style="endArrow=none;html=1;fontFamily=Courier New;" edge="1" parent="1">
                    <mxGeometry width="50" height="50" relative="1" as="geometry">
                        <mxPoint x="210" y="179" as="sourcePoint"/>
                        <mxPoint x="230" y="178.83000000000004" as="targetPoint"/>
                    </mxGeometry>
                </mxCell>
                <mxCell id="75" value="" style="endArrow=none;html=1;fontFamily=Courier New;" edge="1" parent="1">
                    <mxGeometry width="50" height="50" relative="1" as="geometry">
                        <mxPoint x="210" y="208" as="sourcePoint"/>
                        <mxPoint x="230" y="207.83000000000004" as="targetPoint"/>
                    </mxGeometry>
                </mxCell>
                <mxCell id="76" value="" style="endArrow=none;html=1;fontFamily=Courier New;" edge="1" parent="1">
                    <mxGeometry width="50" height="50" relative="1" as="geometry">
                        <mxPoint x="210" y="238" as="sourcePoint"/>
                        <mxPoint x="230" y="237.83000000000004" as="targetPoint"/>
                    </mxGeometry>
                </mxCell>
                <mxCell id="77" value="" style="endArrow=none;html=1;fontFamily=Courier New;" edge="1" parent="1">
                    <mxGeometry width="50" height="50" relative="1" as="geometry">
                        <mxPoint x="210" y="268" as="sourcePoint"/>
                        <mxPoint x="230" y="267.83000000000004" as="targetPoint"/>
                    </mxGeometry>
                </mxCell>
                <mxCell id="78" value="" style="endArrow=none;html=1;fontFamily=Courier New;" edge="1" parent="1">
                    <mxGeometry width="50" height="50" relative="1" as="geometry">
                        <mxPoint x="210" y="296.88" as="sourcePoint"/>
                        <mxPoint x="230" y="296.71000000000004" as="targetPoint"/>
                    </mxGeometry>
                </mxCell>
                <mxCell id="80" value="" style="endArrow=none;html=1;fontFamily=Courier New;" edge="1" parent="1">
                    <mxGeometry width="50" height="50" relative="1" as="geometry">
                        <mxPoint x="210" y="326.88" as="sourcePoint"/>
                        <mxPoint x="230" y="326.71000000000004" as="targetPoint"/>
                    </mxGeometry>
                </mxCell>
                <mxCell id="81" value="" style="endArrow=none;html=1;fontFamily=Courier New;" edge="1" parent="1">
                    <mxGeometry width="50" height="50" relative="1" as="geometry">
                        <mxPoint x="210" y="355.88" as="sourcePoint"/>
                        <mxPoint x="230" y="355.71000000000004" as="targetPoint"/>
                    </mxGeometry>
                </mxCell>
                <mxCell id="82" value="" style="endArrow=none;html=1;fontFamily=Courier New;" edge="1" parent="1">
                    <mxGeometry width="50" height="50" relative="1" as="geometry">
                        <mxPoint x="400" y="474.88" as="sourcePoint"/>
                        <mxPoint x="420" y="474.71000000000004" as="targetPoint"/>
                    </mxGeometry>
                </mxCell>
                <mxCell id="83" value="" style="endArrow=none;html=1;fontFamily=Courier New;" edge="1" parent="1">
                    <mxGeometry width="50" height="50" relative="1" as="geometry">
                        <mxPoint x="210" y="474.88" as="sourcePoint"/>
                        <mxPoint x="230" y="474.71000000000004" as="targetPoint"/>
                    </mxGeometry>
                </mxCell>
                <mxCell id="84" value="" style="endArrow=none;html=1;fontFamily=Courier New;" edge="1" parent="1">
                    <mxGeometry width="50" height="50" relative="1" as="geometry">
                        <mxPoint x="210" y="444.88" as="sourcePoint"/>
                        <mxPoint x="230" y="444.71000000000004" as="targetPoint"/>
                    </mxGeometry>
                </mxCell>
                <mxCell id="85" value="" style="endArrow=none;html=1;fontFamily=Courier New;" edge="1" parent="1">
                    <mxGeometry width="50" height="50" relative="1" as="geometry">
                        <mxPoint x="210" y="415.88" as="sourcePoint"/>
                        <mxPoint x="230" y="415.71000000000004" as="targetPoint"/>
                    </mxGeometry>
                </mxCell>
                <mxCell id="86" value="" style="endArrow=none;html=1;fontFamily=Courier New;" edge="1" parent="1">
                    <mxGeometry width="50" height="50" relative="1" as="geometry">
                        <mxPoint x="210" y="385.88" as="sourcePoint"/>
                        <mxPoint x="230" y="385.71000000000004" as="targetPoint"/>
                    </mxGeometry>
                </mxCell>
                <mxCell id="87" value="" style="endArrow=none;html=1;fontFamily=Courier New;" edge="1" parent="1">
                    <mxGeometry width="50" height="50" relative="1" as="geometry">
                        <mxPoint x="400" y="444.88" as="sourcePoint"/>
                        <mxPoint x="420" y="444.71000000000004" as="targetPoint"/>
                    </mxGeometry>
                </mxCell>
                <mxCell id="88" value="" style="endArrow=none;html=1;fontFamily=Courier New;" edge="1" parent="1">
                    <mxGeometry width="50" height="50" relative="1" as="geometry">
                        <mxPoint x="400" y="415.88" as="sourcePoint"/>
                        <mxPoint x="420" y="415.71000000000004" as="targetPoint"/>
                    </mxGeometry>
                </mxCell>
                <mxCell id="89" value="" style="endArrow=none;html=1;fontFamily=Courier New;" edge="1" parent="1">
                    <mxGeometry width="50" height="50" relative="1" as="geometry">
                        <mxPoint x="400" y="385.88" as="sourcePoint"/>
                        <mxPoint x="420" y="385.71000000000004" as="targetPoint"/>
                    </mxGeometry>
                </mxCell>
                <mxCell id="90" value="" style="endArrow=none;html=1;fontFamily=Courier New;" edge="1" parent="1">
                    <mxGeometry width="50" height="50" relative="1" as="geometry">
                        <mxPoint x="400" y="355.88" as="sourcePoint"/>
                        <mxPoint x="420" y="355.71000000000004" as="targetPoint"/>
                    </mxGeometry>
                </mxCell>
                <mxCell id="91" value="" style="endArrow=none;html=1;fontFamily=Courier New;" edge="1" parent="1">
                    <mxGeometry width="50" height="50" relative="1" as="geometry">
                        <mxPoint x="400" y="59.88" as="sourcePoint"/>
                        <mxPoint x="420" y="59.71000000000004" as="targetPoint"/>
                    </mxGeometry>
                </mxCell>
                <mxCell id="92" value="" style="endArrow=none;html=1;fontFamily=Courier New;" edge="1" parent="1">
                    <mxGeometry width="50" height="50" relative="1" as="geometry">
                        <mxPoint x="400" y="89.88" as="sourcePoint"/>
                        <mxPoint x="420" y="89.71000000000004" as="targetPoint"/>
                    </mxGeometry>
                </mxCell>
                <mxCell id="93" value="" style="endArrow=none;html=1;fontFamily=Courier New;" edge="1" parent="1">
                    <mxGeometry width="50" height="50" relative="1" as="geometry">
                        <mxPoint x="400" y="118.88" as="sourcePoint"/>
                        <mxPoint x="420" y="118.71000000000004" as="targetPoint"/>
                    </mxGeometry>
                </mxCell>
                <mxCell id="94" value="" style="endArrow=none;html=1;fontFamily=Courier New;" edge="1" parent="1">
                    <mxGeometry width="50" height="50" relative="1" as="geometry">
                        <mxPoint x="400" y="178.88" as="sourcePoint"/>
                        <mxPoint x="420" y="178.71000000000004" as="targetPoint"/>
                    </mxGeometry>
                </mxCell>
                <mxCell id="95" value="" style="endArrow=none;html=1;fontFamily=Courier New;" edge="1" parent="1">
                    <mxGeometry width="50" height="50" relative="1" as="geometry">
                        <mxPoint x="400" y="207.88" as="sourcePoint"/>
                        <mxPoint x="420" y="207.71000000000004" as="targetPoint"/>
                    </mxGeometry>
                </mxCell>
                <mxCell id="96" value="" style="endArrow=none;html=1;fontFamily=Courier New;" edge="1" parent="1">
                    <mxGeometry width="50" height="50" relative="1" as="geometry">
                        <mxPoint x="400" y="148.88" as="sourcePoint"/>
                        <mxPoint x="420" y="148.71000000000004" as="targetPoint"/>
                    </mxGeometry>
                </mxCell>
                <mxCell id="97" value="" style="endArrow=none;html=1;fontFamily=Courier New;" edge="1" parent="1">
                    <mxGeometry width="50" height="50" relative="1" as="geometry">
                        <mxPoint x="400" y="237.88" as="sourcePoint"/>
                        <mxPoint x="420" y="237.71000000000004" as="targetPoint"/>
                    </mxGeometry>
                </mxCell>
                <mxCell id="98" value="" style="endArrow=none;html=1;fontFamily=Courier New;" edge="1" parent="1">
                    <mxGeometry width="50" height="50" relative="1" as="geometry">
                        <mxPoint x="400" y="267.88" as="sourcePoint"/>
                        <mxPoint x="420" y="267.71000000000004" as="targetPoint"/>
                    </mxGeometry>
                </mxCell>
                <mxCell id="99" value="" style="endArrow=none;html=1;fontFamily=Courier New;" edge="1" parent="1">
                    <mxGeometry width="50" height="50" relative="1" as="geometry">
                        <mxPoint x="400" y="296.88" as="sourcePoint"/>
                        <mxPoint x="420" y="296.71000000000004" as="targetPoint"/>
                    </mxGeometry>
                </mxCell>
                <mxCell id="100" value="" style="endArrow=none;html=1;fontFamily=Courier New;" edge="1" parent="1">
                    <mxGeometry width="50" height="50" relative="1" as="geometry">
                        <mxPoint x="400" y="326.88" as="sourcePoint"/>
                        <mxPoint x="420" y="326.71000000000004" as="targetPoint"/>
                    </mxGeometry>
                </mxCell>
                <mxCell id="115" value="" style="group;rotation=90;" vertex="1" connectable="0" parent="1">
                    <mxGeometry x="235" y="80" width="160" height="90" as="geometry"/>
                </mxCell>
                <mxCell id="103" value="" style="rounded=0;whiteSpace=wrap;html=1;fontFamily=Courier New;rotation=90;fillColor=none;" vertex="1" parent="115">
                    <mxGeometry x="105" y="25" width="10" height="10" as="geometry"/>
                </mxCell>
                <mxCell id="104" value="MISO" style="text;html=1;align=right;verticalAlign=middle;resizable=0;points=[];autosize=1;strokeColor=none;fillColor=none;fontFamily=Courier New;rotation=90;" vertex="1" parent="115">
                    <mxGeometry x="85" y="-25" width="50" height="30" as="geometry"/>
                </mxCell>
                <mxCell id="105" value="" style="rounded=0;whiteSpace=wrap;html=1;fontFamily=Courier New;rotation=90;fillColor=none;" vertex="1" parent="115">
                    <mxGeometry x="75" y="25" width="10" height="10" as="geometry"/>
                </mxCell>
                <mxCell id="106" value="SCK" style="text;html=1;align=right;verticalAlign=middle;resizable=0;points=[];autosize=1;strokeColor=none;fillColor=none;fontFamily=Courier New;rotation=90;" vertex="1" parent="115">
                    <mxGeometry x="55" y="-25" width="50" height="30" as="geometry"/>
                </mxCell>
                <mxCell id="107" value="" style="rounded=0;whiteSpace=wrap;html=1;fontFamily=Courier New;rotation=90;fillColor=none;" vertex="1" parent="115">
                    <mxGeometry x="45" y="25" width="10" height="10" as="geometry"/>
                </mxCell>
                <mxCell id="108" value="RST" style="text;html=1;align=right;verticalAlign=middle;resizable=0;points=[];autosize=1;strokeColor=none;fillColor=none;fontFamily=Courier New;rotation=90;" vertex="1" parent="115">
                    <mxGeometry x="25" y="-25" width="50" height="30" as="geometry"/>
                </mxCell>
                <mxCell id="109" value="" style="rounded=0;whiteSpace=wrap;html=1;fontFamily=Courier New;rotation=90;fillColor=none;" vertex="1" parent="115">
                    <mxGeometry x="105" y="55" width="10" height="10" as="geometry"/>
                </mxCell>
                <mxCell id="110" value="" style="rounded=0;whiteSpace=wrap;html=1;fontFamily=Courier New;rotation=90;fillColor=none;" vertex="1" parent="115">
                    <mxGeometry x="75" y="55" width="10" height="10" as="geometry"/>
                </mxCell>
                <mxCell id="111" value="" style="rounded=0;whiteSpace=wrap;html=1;fontFamily=Courier New;rotation=90;fillColor=none;" vertex="1" parent="115">
                    <mxGeometry x="45" y="55" width="10" height="10" as="geometry"/>
                </mxCell>
                <mxCell id="112" value="5V" style="text;html=1;align=left;verticalAlign=middle;resizable=0;points=[];autosize=1;strokeColor=none;fillColor=none;fontFamily=Courier New;rotation=90;" vertex="1" parent="115">
                    <mxGeometry x="90" y="80" width="40" height="30" as="geometry"/>
                </mxCell>
                <mxCell id="113" value="MOSI" style="text;html=1;align=left;verticalAlign=middle;resizable=0;points=[];autosize=1;strokeColor=none;fillColor=none;fontFamily=Courier New;rotation=90;" vertex="1" parent="115">
                    <mxGeometry x="55" y="85" width="50" height="30" as="geometry"/>
                </mxCell>
                <mxCell id="114" value="GND" style="text;html=1;align=left;verticalAlign=middle;resizable=0;points=[];autosize=1;strokeColor=none;fillColor=none;fontFamily=Courier New;rotation=90;" vertex="1" parent="115">
                    <mxGeometry x="25" y="85" width="50" height="30" as="geometry"/>
                </mxCell>
            </root>
        </mxGraphModel>
    </diagram>
</mxfile>